<mxfile host="Electron" agent="Mozilla/5.0 (Macintosh; Intel Mac OS X 10_15_7) AppleWebKit/537.36 (KHTML, like Gecko) draw.io/24.7.8 Chrome/128.0.6613.36 Electron/32.0.1 Safari/537.36" version="24.7.8">
  <diagram name="Page-1" id="f_WRhfWFqSgPgvwyiNYf">
    <mxGraphModel dx="2262" dy="1528" grid="1" gridSize="10" guides="1" tooltips="1" connect="1" arrows="1" fold="1" page="1" pageScale="1" pageWidth="1169" pageHeight="827" math="0" shadow="0">
      <root>
        <mxCell id="0" />
        <mxCell id="1" parent="0" />
        <mxCell id="6zBgUdPo6Mw9IHS1qZip-41" value="6. Update records" style="edgeStyle=orthogonalEdgeStyle;rounded=0;orthogonalLoop=1;jettySize=auto;html=1;align=left;" edge="1" parent="1" source="6zBgUdPo6Mw9IHS1qZip-3" target="6zBgUdPo6Mw9IHS1qZip-21">
          <mxGeometry relative="1" as="geometry" />
        </mxCell>
        <mxCell id="6zBgUdPo6Mw9IHS1qZip-42" value="7. Mint invoice" style="edgeStyle=orthogonalEdgeStyle;rounded=0;orthogonalLoop=1;jettySize=auto;html=1;" edge="1" parent="1" source="6zBgUdPo6Mw9IHS1qZip-3" target="6zBgUdPo6Mw9IHS1qZip-18">
          <mxGeometry x="0.1667" y="-10" relative="1" as="geometry">
            <mxPoint as="offset" />
          </mxGeometry>
        </mxCell>
        <mxCell id="6zBgUdPo6Mw9IHS1qZip-3" value="Index Order&lt;div&gt;Manager&lt;/div&gt;" style="rounded=0;whiteSpace=wrap;html=1;fillColor=#dae8fc;strokeColor=#6c8ebf;" vertex="1" parent="1">
          <mxGeometry x="320" y="240" width="120" height="60" as="geometry" />
        </mxCell>
        <mxCell id="6zBgUdPo6Mw9IHS1qZip-5" value="User" style="shape=umlActor;verticalLabelPosition=bottom;verticalAlign=top;html=1;outlineConnect=0;" vertex="1" parent="1">
          <mxGeometry x="-70" y="240" width="30" height="60" as="geometry" />
        </mxCell>
        <mxCell id="6zBgUdPo6Mw9IHS1qZip-31" value="2. Confirm" style="edgeStyle=orthogonalEdgeStyle;rounded=0;orthogonalLoop=1;jettySize=auto;html=1;align=left;" edge="1" parent="1" source="6zBgUdPo6Mw9IHS1qZip-8" target="6zBgUdPo6Mw9IHS1qZip-11">
          <mxGeometry relative="1" as="geometry" />
        </mxCell>
        <mxCell id="6zBgUdPo6Mw9IHS1qZip-37" value="3. Mint" style="edgeStyle=orthogonalEdgeStyle;rounded=0;orthogonalLoop=1;jettySize=auto;html=1;align=left;" edge="1" parent="1" source="6zBgUdPo6Mw9IHS1qZip-8" target="6zBgUdPo6Mw9IHS1qZip-35">
          <mxGeometry relative="1" as="geometry" />
        </mxCell>
        <mxCell id="6zBgUdPo6Mw9IHS1qZip-40" value="5. Mint info" style="edgeStyle=orthogonalEdgeStyle;rounded=0;orthogonalLoop=1;jettySize=auto;html=1;align=left;" edge="1" parent="1" source="6zBgUdPo6Mw9IHS1qZip-8" target="6zBgUdPo6Mw9IHS1qZip-3">
          <mxGeometry x="0.5" y="-10" relative="1" as="geometry">
            <mxPoint as="offset" />
          </mxGeometry>
        </mxCell>
        <mxCell id="6zBgUdPo6Mw9IHS1qZip-8" value="Solver" style="rounded=0;whiteSpace=wrap;html=1;fillColor=#dae8fc;strokeColor=#6c8ebf;" vertex="1" parent="1">
          <mxGeometry x="560" y="240" width="120" height="60" as="geometry" />
        </mxCell>
        <mxCell id="6zBgUdPo6Mw9IHS1qZip-32" value="3. Update records" style="edgeStyle=orthogonalEdgeStyle;rounded=0;orthogonalLoop=1;jettySize=auto;html=1;" edge="1" parent="1" source="6zBgUdPo6Mw9IHS1qZip-11" target="6zBgUdPo6Mw9IHS1qZip-22">
          <mxGeometry y="-10" relative="1" as="geometry">
            <mxPoint as="offset" />
          </mxGeometry>
        </mxCell>
        <mxCell id="6zBgUdPo6Mw9IHS1qZip-11" value="Collatetral&lt;div&gt;Manager&lt;/div&gt;" style="rounded=0;whiteSpace=wrap;html=1;fillColor=#dae8fc;strokeColor=#6c8ebf;" vertex="1" parent="1">
          <mxGeometry x="560" y="100" width="120" height="60" as="geometry" />
        </mxCell>
        <mxCell id="6zBgUdPo6Mw9IHS1qZip-43" value="8. Mint invoice" style="edgeStyle=orthogonalEdgeStyle;rounded=0;orthogonalLoop=1;jettySize=auto;html=1;" edge="1" parent="1" source="6zBgUdPo6Mw9IHS1qZip-18" target="6zBgUdPo6Mw9IHS1qZip-5">
          <mxGeometry x="0.1667" y="-10" relative="1" as="geometry">
            <mxPoint as="offset" />
          </mxGeometry>
        </mxCell>
        <mxCell id="6zBgUdPo6Mw9IHS1qZip-18" value="FIX JSON" style="rounded=0;whiteSpace=wrap;html=1;fillColor=#e1d5e7;strokeColor=#9673a6;" vertex="1" parent="1">
          <mxGeometry x="80" y="240" width="120" height="60" as="geometry" />
        </mxCell>
        <mxCell id="6zBgUdPo6Mw9IHS1qZip-21" value="Index Order&lt;div&gt;Records&lt;/div&gt;" style="rounded=0;whiteSpace=wrap;html=1;fillColor=#fff2cc;strokeColor=#d6b656;" vertex="1" parent="1">
          <mxGeometry x="320" y="390" width="120" height="60" as="geometry" />
        </mxCell>
        <mxCell id="6zBgUdPo6Mw9IHS1qZip-22" value="Collateral&lt;div&gt;Records&lt;/div&gt;" style="rounded=0;whiteSpace=wrap;html=1;fillColor=#fff2cc;strokeColor=#d6b656;" vertex="1" parent="1">
          <mxGeometry x="320" y="100" width="120" height="60" as="geometry" />
        </mxCell>
        <mxCell id="6zBgUdPo6Mw9IHS1qZip-26" value="&lt;font style=&quot;font-size: 36px;&quot;&gt;Phase 6. Minting&lt;/font&gt;" style="text;html=1;align=center;verticalAlign=middle;resizable=0;points=[];autosize=1;strokeColor=none;fillColor=none;" vertex="1" parent="1">
          <mxGeometry x="380" y="-90" width="290" height="60" as="geometry" />
        </mxCell>
        <mxCell id="6zBgUdPo6Mw9IHS1qZip-30" value="1. Publish:&lt;div&gt;Batch Mintable&lt;/div&gt;" style="edgeStyle=orthogonalEdgeStyle;rounded=0;orthogonalLoop=1;jettySize=auto;html=1;align=left;" edge="1" parent="1" source="6zBgUdPo6Mw9IHS1qZip-29" target="6zBgUdPo6Mw9IHS1qZip-8">
          <mxGeometry x="0.5" y="-20" relative="1" as="geometry">
            <mxPoint as="offset" />
          </mxGeometry>
        </mxCell>
        <mxCell id="6zBgUdPo6Mw9IHS1qZip-29" value="Batch&lt;div&gt;Manager&lt;/div&gt;" style="rounded=0;whiteSpace=wrap;html=1;fillColor=#dae8fc;strokeColor=#6c8ebf;" vertex="1" parent="1">
          <mxGeometry x="800" y="240" width="120" height="60" as="geometry" />
        </mxCell>
        <mxCell id="6zBgUdPo6Mw9IHS1qZip-33" value="OTCIndex" style="rounded=0;whiteSpace=wrap;html=1;fillColor=#e1d5e7;strokeColor=#9673a6;" vertex="1" parent="1">
          <mxGeometry x="560" y="530" width="120" height="60" as="geometry" />
        </mxCell>
        <mxCell id="6zBgUdPo6Mw9IHS1qZip-39" value="4. mint()" style="edgeStyle=orthogonalEdgeStyle;rounded=0;orthogonalLoop=1;jettySize=auto;html=1;align=left;" edge="1" parent="1" source="6zBgUdPo6Mw9IHS1qZip-35" target="6zBgUdPo6Mw9IHS1qZip-33">
          <mxGeometry relative="1" as="geometry" />
        </mxCell>
        <mxCell id="6zBgUdPo6Mw9IHS1qZip-35" value="Chain Connector" style="rounded=0;whiteSpace=wrap;html=1;fillColor=#dae8fc;strokeColor=#6c8ebf;" vertex="1" parent="1">
          <mxGeometry x="560" y="384" width="120" height="60" as="geometry" />
        </mxCell>
      </root>
    </mxGraphModel>
  </diagram>
</mxfile>
